<?xml version="1.0" encoding="UTF-8" standalone="no"?>
<svg
   width="1000"
   height="1000"
   version="1.1"
   id="svg4"
   xmlns="http://www.w3.org/2000/svg"
   xmlns:svg="http://www.w3.org/2000/svg">
  <defs
     id="defs8" />
  <path
     d="M 966.25929,369.77341 C 929.76857,288.13388 887.21776,209.72127 839.00679,135.28034 L 823.45643,111.50122 C 804.3111,81.94967 779.2206,57.306092 750.00501,39.362697 720.78941,21.419086 688.17874,10.625754 654.55304,7.7669924 L 627.2525,5.4263177 c -84.7017,-7.235089 -169.8068,-7.235089 -254.5055,0 L 345.44646,7.7669924 C 311.81876,10.625754 279.21209,21.419086 249.9955,39.362697 220.7794,57.306092 195.6874,81.94967 176.54307,111.50122 l -15.55036,23.99192 C 112.78274,209.93406 70.230405,288.34666 33.740125,369.98619 L 21.98989,396.26558 C 7.5118,428.67807 0,464.11379 0,500.00005 c 0,35.88676 7.5118,71.32137 21.98989,103.73437 l 11.750235,26.27942 c 36.49028,81.64163 79.042615,160.05425 127.252585,234.49304 l 15.55036,23.99188 c 19.14433,29.55104 44.23633,54.19728 73.45243,72.14064 29.21659,17.94341 61.82326,28.73712 95.45096,31.59383 l 27.30054,2.34065 c 84.6987,7.23482 169.8038,7.23482 254.5055,0 l 27.30054,-2.34065 c 33.65072,-2.89396 66.27641,-13.73553 95.49201,-31.73744 29.22051,-18.00191 54.29608,-42.70665 73.41138,-72.31619 l 15.55036,-23.99193 c 48.21097,-74.43879 90.76178,-152.85135 127.2525,-234.49303 l 11.75028,-26.27938 C 992.48483,571.00221 1000,535.56761 1000,499.68087 1000,463.7946 992.48483,428.3589 978.00957,395.9464 Z"
     id="path2"
     style="fill:#ffffff" />
</svg>
