<?xml version="1.0" encoding="UTF-8" standalone="no"?>
<svg
   width="1000"
   height="1000"
   version="1.1"
   id="svg4"
   xmlns="http://www.w3.org/2000/svg"
   xmlns:svg="http://www.w3.org/2000/svg">
  <defs
     id="defs8" />
  <path
     d="M 944.3451,375.89406 C 909.56945,298.09159 869.01853,223.36437 823.07347,152.42216 l -14.81949,-22.6615 C 790.00848,101.59804 766.09723,78.112706 738.25477,61.01265 710.41231,43.912389 679.33434,33.626343 647.28905,30.901944 l -26.01742,-2.230663 c -80.72072,-6.89504 -161.82588,-6.89504 -242.54374,0 l -26.01741,2.230663 c -32.0472,2.724399 -63.12136,13.010445 -90.96477,30.110706 -27.84294,17.100056 -51.75562,40.58539 -70.00016,68.74801 l -14.8195,22.8643 C 130.98195,223.56716 90.429576,298.29437 55.654339,376.09684 L 44.456365,401.1411 C 30.658745,432.0302 23.5,465.80044 23.5,500.00005 c 0,34.20008 7.158745,67.96926 20.956365,98.85885 l 11.197974,25.04429 c 34.775237,77.80447 75.327611,152.5317 121.271711,223.47187 l 14.8195,22.86426 c 18.24454,28.16214 42.15722,51.65001 70.00016,68.75003 27.84341,17.10007 58.91757,27.38647 90.96477,30.10892 l 26.01741,2.23064 c 80.71786,6.89478 161.82302,6.89478 242.54374,0 l 26.01742,-2.23064 c 32.06913,-2.75795 63.16142,-13.08996 91.00388,-30.24578 27.84715,-17.15582 51.74417,-40.69944 69.96105,-68.91733 l 14.81949,-22.86431 C 869.01853,776.13068 909.56945,701.40351 944.3451,623.59899 l 11.19802,-25.04425 C 969.33804,567.66511 976.5,533.89593 976.5,499.69587 c 0,-34.19962 -7.16196,-67.96984 -20.95688,-98.85895 z"
     id="path2"
     style="fill:#ffffff" />
</svg>
